<?xml version="1.0" encoding="UTF-8"?>
<svg id="_Слой_2" data-name="Слой 2" xmlns="http://www.w3.org/2000/svg" viewBox="0 0 121.04 57.39">
  <defs>
    <style>
      .cls-1 {
        fill: #fff;
      }

      .cls-2 {
        fill: #f4a93b;
      }
    </style>
  </defs>
  <g id="_Слой_2-2" data-name="Слой 2">
    <g>
      <g>
        <path class="cls-1" d="m19.07,13.72v7.54h-9v-7.63L0,.48h9.5l5.45,7.19L20.45.48h8.7l-10.07,13.25Z"/>
        <path class="cls-1" d="m35.4,20.35c-2.29-.93-4.08-2.22-5.38-3.88-1.3-1.65-1.95-3.52-1.95-5.6s.65-3.95,1.95-5.6c1.3-1.65,3.09-2.95,5.38-3.88,2.29-.93,4.87-1.4,7.74-1.4s5.45.47,7.74,1.4c2.29.93,4.08,2.22,5.38,3.88,1.3,1.65,1.95,3.52,1.95,5.6s-.65,3.95-1.95,5.6c-1.3,1.65-3.09,2.95-5.38,3.88s-4.87,1.4-7.74,1.4-5.45-.47-7.74-1.4Zm10.78-4.92c.9-.43,1.62-1.03,2.16-1.81.53-.78.8-1.7.8-2.75s-.27-1.97-.8-2.75c-.53-.78-1.25-1.39-2.16-1.81-.9-.43-1.91-.64-3.03-.64s-2.13.21-3.03.64c-.9.43-1.62,1.03-2.16,1.81-.53.78-.8,1.7-.8,2.75s.27,1.97.8,2.75c.53.78,1.25,1.39,2.16,1.81.9.43,1.91.64,3.03.64s2.13-.21,3.03-.64Z"/>
        <path class="cls-1" d="m79.15,10.31h7.82v8.79c-1.58.85-3.41,1.51-5.49,1.96-2.09.46-4.13.68-6.14.68-2.85,0-5.4-.46-7.67-1.38-2.26-.92-4.04-2.21-5.32-3.86-1.28-1.65-1.93-3.53-1.93-5.63s.64-3.98,1.93-5.63c1.28-1.65,3.08-2.94,5.38-3.86,2.3-.92,4.9-1.38,7.8-1.38,2.62,0,4.96.34,7.04,1.02,2.07.68,3.8,1.68,5.17,2.99l-5.76,3.95c-1.68-1.52-3.68-2.29-5.99-2.29-1.98,0-3.56.47-4.73,1.4-1.17.93-1.75,2.2-1.75,3.8s.58,2.82,1.74,3.77,2.7,1.43,4.63,1.43c1.14,0,2.24-.17,3.28-.51v-5.26Z"/>
        <path class="cls-1" d="m109.02,17.64h-10.15l-1.79,3.62h-9.15L99.6.48h8.85l11.67,20.79h-9.31l-1.79-3.62Zm-2.48-5.05l-2.59-5.23-2.59,5.23h5.19Z"/>
        <path class="cls-1" d="m29.52,36.12v20.79h-9v-7.66h-8.32v7.66H3.2v-20.79h9v7.37h8.32v-7.37h9Z"/>
        <path class="cls-1" d="m37.08,54.8c-2.29-1.72-3.43-4.14-3.43-7.25v-11.44h9v11.23c0,1.53.35,2.63,1.05,3.33.7.69,1.71,1.04,3.03,1.04s2.33-.35,3.03-1.04c.7-.69,1.05-1.8,1.05-3.33v-11.23h8.85v11.44c0,3.11-1.14,5.52-3.43,7.25-2.29,1.72-5.48,2.58-9.57,2.58s-7.29-.86-9.57-2.58Z"/>
        <path class="cls-1" d="m88.8,48.03c.86.87,1.3,1.92,1.3,3.15,0,1.82-.97,3.23-2.9,4.23-1.93,1-4.73,1.5-8.39,1.5h-15.03v-20.79h14.27c3.56,0,6.25.5,8.07,1.49,1.82.99,2.73,2.31,2.73,3.95,0,.97-.31,1.84-.93,2.61-.62.77-1.54,1.4-2.77,1.87,1.58.46,2.8,1.12,3.66,1.99Zm-16.17-7.01v3.09h4.2c1.96,0,2.94-.51,2.94-1.54s-.98-1.54-2.94-1.54h-4.2Zm8.39,9.36c0-1.09-.99-1.63-2.98-1.63h-5.42v3.27h5.42c1.98,0,2.98-.54,2.98-1.63Z"/>
      </g>
      <g>
        <rect x="92" y="36.08" width="29.04" height="12.41" rx="6.2" ry="6.2"/>
        <g>
          <path class="cls-2" d="m100.54,38.99c.67.62,1,1.49,1,2.62,0,.79-.18,1.47-.54,2.03-.36.56-.87.98-1.52,1.27s-1.4.43-2.27.43c-.44,0-.86-.04-1.25-.11-.39-.07-.73-.17-1.02-.31l.5-.79c.44.22,1.03.34,1.76.34.95,0,1.69-.23,2.23-.69.54-.46.8-1.12.8-2v-.25c-.26.3-.62.54-1.08.7-.46.16-.98.24-1.55.24s-1.14-.09-1.61-.26c-.47-.18-.84-.43-1.11-.76-.27-.33-.4-.71-.4-1.13s.14-.84.42-1.18c.28-.34.67-.6,1.16-.79.49-.19,1.04-.28,1.65-.28,1.23,0,2.18.31,2.84.93Zm-1.63,2.47c.32-.12.57-.29.75-.5.18-.21.27-.44.27-.7s-.09-.48-.25-.69c-.17-.21-.42-.37-.74-.5-.33-.13-.72-.19-1.18-.19-.6,0-1.09.13-1.46.38-.37.25-.56.59-.56,1.01s.19.75.56,1c.37.25.88.37,1.52.37.41,0,.78-.06,1.1-.18Z"/>
          <path class="cls-2" d="m104.6,44.92c-.56-.29-1-.71-1.33-1.26-.32-.55-.48-1.2-.48-1.95s.16-1.4.48-1.95c.32-.55.76-.97,1.33-1.26.56-.29,1.2-.43,1.93-.43s1.35.14,1.91.43c.56.29,1,.71,1.33,1.26.32.55.48,1.2.48,1.95s-.16,1.4-.48,1.95c-.32.55-.76.97-1.33,1.26s-1.2.43-1.91.43-1.37-.14-1.93-.43Zm3.68-1.17c.44-.47.66-1.15.66-2.03s-.22-1.57-.66-2.03c-.44-.47-1.03-.7-1.76-.7s-1.33.23-1.77.7c-.44.47-.66,1.15-.66,2.03s.22,1.57.66,2.03c.44.47,1.03.7,1.77.7s1.32-.23,1.76-.7Z"/>
          <path class="cls-2" d="m117.31,38.99c.67.62,1,1.49,1,2.62,0,.79-.18,1.47-.54,2.03-.36.56-.87.98-1.52,1.27s-1.4.43-2.27.43c-.44,0-.86-.04-1.25-.11-.39-.07-.73-.17-1.02-.31l.5-.79c.44.22,1.03.34,1.76.34.95,0,1.69-.23,2.23-.69.54-.46.8-1.12.8-2v-.25c-.26.3-.62.54-1.08.7-.46.16-.98.24-1.55.24s-1.14-.09-1.61-.26c-.47-.18-.84-.43-1.11-.76-.27-.33-.4-.71-.4-1.13s.14-.84.42-1.18c.28-.34.67-.6,1.16-.79.49-.19,1.04-.28,1.65-.28,1.23,0,2.18.31,2.84.93Zm-1.63,2.47c.32-.12.57-.29.75-.5.18-.21.27-.44.27-.7s-.09-.48-.25-.69c-.17-.21-.42-.37-.74-.5-.33-.13-.72-.19-1.18-.19-.6,0-1.09.13-1.46.38-.37.25-.56.59-.56,1.01s.19.75.56,1c.37.25.88.37,1.52.37.41,0,.78-.06,1.1-.18Z"/>
        </g>
      </g>
    </g>
  </g>
</svg>